<?xml version="1.0" encoding="UTF-8"?>
<svg viewBox="0 0 24 24" version="1.1" xmlns="http://www.w3.org/2000/svg" xmlns:xlink="http://www.w3.org/1999/xlink">
    <!-- Generator: Sketch 54.1 (76490) - https://sketchapp.com -->
    <title>切片</title>
    <desc>Created with Sketch.</desc>
    <g id="页面1" stroke="none" stroke-width="1">
        <g id="企业详情-欠薪详情" transform="translate(-1483.000000, -307.000000)">
            <g id="icon-进度-已完成" transform="translate(1483.000000, 307.000000)">
                <circle id="椭圆形" cx="12" cy="12" r="9"></circle>
                <path d="M16.3979475,10.6830103 C16.5895097,10.4914481 16.6906119,10.254656 16.7012543,9.97263398 C16.7118966,9.69061193 16.6214367,9.45381984 16.4298746,9.2622577 C16.2383124,9.07069555 16.0041809,8.97757507 15.72748,8.98289624 C15.4507792,8.98821741 15.2166477,9.08665906 15.0250855,9.27822121 L10.5233751,13.7799316 L8.97491448,12.2474344 C8.78335234,12.0558723 8.54922083,11.9574306 8.27251995,11.9521095 C7.99581908,11.9467883 7.76168757,12.0399088 7.57012543,12.2314709 C7.37856328,12.4230331 7.28012163,12.6491828 7.27480046,12.9099202 C7.26947929,13.1706575 7.36259977,13.3968073 7.55416192,13.5883694 L9.77309008,15.8232611 C9.96465222,16.0148233 10.2147472,16.1079437 10.5233751,16.1026226 C10.832003,16.0973014 11.0820981,15.9988597 11.2736602,15.8072976 L11.2098062,15.8711517 L16.3979475,10.6830103 Z" id="路径" fill="#FFFFFF"></path>
            </g>
        </g>
    </g>
</svg>